<svg width="360" height="95" viewBox="0 0 360 95" fill="none" xmlns="http://www.w3.org/2000/svg">
<path d="M1.54175 31C1.54175 14.4315 14.9732 1 31.5417 1H360V64C360 80.5685 346.569 94 330 94H1.54175V31Z" fill="white"/>
<path d="M63.4221 33.928L42.3021 85.512H36.2861L43.1981 68.616L29.0541 33.928H35.5181L46.5261 62.344L57.4061 33.928H63.4221ZM67.1006 51.336C67.1006 47.752 67.826 44.616 69.2766 41.928C70.7273 39.1973 72.7113 37.0853 75.2286 35.592C77.7886 34.0987 80.626 33.352 83.7406 33.352C86.8126 33.352 89.4793 34.0133 91.7406 35.336C94.002 36.6587 95.6873 38.3227 96.7966 40.328V33.928H102.685V69H96.7966V62.472C95.6446 64.52 93.9166 66.2267 91.6126 67.592C89.3513 68.9147 86.706 69.576 83.6766 69.576C80.562 69.576 77.746 68.808 75.2286 67.272C72.7113 65.736 70.7273 63.5813 69.2766 60.808C67.826 58.0347 67.1006 54.8773 67.1006 51.336ZM96.7966 51.4C96.7966 48.7547 96.2633 46.4507 95.1966 44.488C94.13 42.5253 92.6793 41.032 90.8446 40.008C89.0526 38.9413 87.0686 38.408 84.8926 38.408C82.7166 38.408 80.7326 38.92 78.9406 39.944C77.1486 40.968 75.7193 42.4613 74.6526 44.424C73.586 46.3867 73.0526 48.6907 73.0526 51.336C73.0526 54.024 73.586 56.3707 74.6526 58.376C75.7193 60.3387 77.1486 61.8533 78.9406 62.92C80.7326 63.944 82.7166 64.456 84.8926 64.456C87.0686 64.456 89.0526 63.944 90.8446 62.92C92.6793 61.8533 94.13 60.3387 95.1966 58.376C96.2633 56.3707 96.7966 54.0453 96.7966 51.4ZM132.111 69L118.351 53.512V69H112.527V21.64H118.351V49.48L131.855 33.928H139.983L123.471 51.4L140.047 69H132.111Z" fill="black"/>
<path d="M154.176 1H360V64C360 80.5685 346.569 94 330 94H154.176V1Z" fill="#0E6CFF"/>
<path d="M195.823 34.288C200.089 34.288 203.545 35.5893 206.191 38.192C208.836 40.752 210.159 44.464 210.159 49.328V70H204.399V50.16C204.399 46.6613 203.524 43.9947 201.775 42.16C200.025 40.2827 197.636 39.344 194.607 39.344C191.535 39.344 189.081 40.304 187.247 42.224C185.455 44.144 184.559 46.9387 184.559 50.608V70H178.735V34.928H184.559V39.92C185.711 38.128 187.268 36.7413 189.231 35.76C191.236 34.7787 193.433 34.288 195.823 34.288ZM251.672 51.12C251.672 52.2293 251.608 53.4027 251.48 54.64H223.448C223.661 58.096 224.835 60.8053 226.968 62.768C229.144 64.688 231.768 65.648 234.84 65.648C237.357 65.648 239.448 65.072 241.112 63.92C242.819 62.7253 244.013 61.1467 244.696 59.184H250.968C250.029 62.5547 248.152 65.3067 245.336 67.44C242.52 69.5307 239.021 70.576 234.84 70.576C231.512 70.576 228.525 69.8293 225.88 68.336C223.277 66.8427 221.229 64.7307 219.736 62C218.243 59.2267 217.496 56.0267 217.496 52.4C217.496 48.7733 218.221 45.5947 219.672 42.864C221.123 40.1333 223.149 38.0427 225.752 36.592C228.397 35.0987 231.427 34.352 234.84 34.352C238.168 34.352 241.112 35.0773 243.672 36.528C246.232 37.9787 248.195 39.984 249.56 42.544C250.968 45.0613 251.672 47.92 251.672 51.12ZM245.656 49.904C245.656 47.6853 245.165 45.7867 244.184 44.208C243.203 42.5867 241.859 41.3707 240.152 40.56C238.488 39.7067 236.632 39.28 234.584 39.28C231.64 39.28 229.123 40.2187 227.032 42.096C224.984 43.9733 223.811 46.576 223.512 49.904H245.656ZM306.08 34.928L295.136 70H289.12L280.672 42.16L272.224 70H266.208L255.2 34.928H261.152L269.216 64.368L277.92 34.928H283.872L292.384 64.432L300.32 34.928H306.08ZM324.276 70.576C321.588 70.576 319.177 70.128 317.044 69.232C314.91 68.2933 313.225 67.0133 311.988 65.392C310.75 63.728 310.068 61.8293 309.94 59.696H315.956C316.126 61.4453 316.937 62.8747 318.388 63.984C319.881 65.0933 321.822 65.648 324.212 65.648C326.43 65.648 328.18 65.1573 329.46 64.176C330.74 63.1947 331.38 61.9573 331.38 60.464C331.38 58.928 330.697 57.7973 329.332 57.072C327.966 56.304 325.854 55.5573 322.996 54.832C320.393 54.1493 318.26 53.4667 316.596 52.784C314.974 52.0587 313.566 51.0133 312.372 49.648C311.22 48.24 310.644 46.4053 310.644 44.144C310.644 42.352 311.177 40.7093 312.244 39.216C313.31 37.7227 314.825 36.5493 316.788 35.696C318.75 34.8 320.99 34.352 323.508 34.352C327.39 34.352 330.526 35.3333 332.916 37.296C335.305 39.2587 336.585 41.9467 336.756 45.36H330.932C330.804 43.5253 330.057 42.0533 328.692 40.944C327.369 39.8347 325.577 39.28 323.316 39.28C321.225 39.28 319.561 39.728 318.324 40.624C317.086 41.52 316.468 42.6933 316.468 44.144C316.468 45.296 316.83 46.256 317.556 47.024C318.324 47.7493 319.262 48.3467 320.372 48.816C321.524 49.2427 323.102 49.7333 325.108 50.288C327.625 50.9707 329.673 51.6533 331.252 52.336C332.83 52.976 334.174 53.9573 335.284 55.28C336.436 56.6027 337.033 58.3307 337.076 60.464C337.076 62.384 336.542 64.112 335.476 65.648C334.409 67.184 332.894 68.4 330.932 69.296C329.012 70.1493 326.793 70.576 324.276 70.576Z" fill="white"/>
</svg>
